<svg height="22" viewBox="0 0 139 22" width="139" xmlns="http://www.w3.org/2000/svg"><g fill="none" fill-rule="evenodd"><path d="m109.708 0c-.955 0-1.663.687039-1.663 1.55984 0 .87281.687 1.55985 1.663 1.55985s1.663-.70768 1.663-1.62177c0-.852163-.708-1.49792-1.663-1.49792zm1.289 4.94786h-2.598v11.09874h2.598zm-84.8511-.58384v.6664h3.0549v2.07881h-2.9723v8.93737h-2.5978v-8.93737h-1.8281v-2.07881h1.8281v-.70768c0-2.32944 1.3918-3.845058 3.9689-3.845058.8935 0 1.7663.185766 2.3501.601528l-.7283 1.95496c-.3951-.27127-.8935-.45704-1.4331-.45704-1.0821 0-1.6424.60153-1.6424 1.78689zm9.6244.45704c-3.4087 0-5.9033 2.35008-5.9033 5.67614 0 3.3261 2.4533 5.6969 5.9033 5.6969 3.4499 0 5.9238-2.3708 5.9238-5.6969 0-3.32606-2.5152-5.67614-5.9238-5.67614zm0 2.2056c1.893 0 3.3054 1.35049 3.3054 3.47054 0 2.1201-1.433 3.4706-3.3054 3.4706s-3.2849-1.3505-3.2849-3.4706c0-2.12005 1.3918-3.47054 3.2849-3.47054zm19.1636-2.07878v11.09872h-2.4739v-1.4124c-.8315 1.0173-2.1407 1.5599-3.5738 1.5599-2.8484 0-4.7798-1.5599-4.7798-4.9066v-6.33962h2.5978v5.98582c0 2.0169.9554 2.9722 2.5978 2.9722 1.8075 0 3.0342-1.1234 3.0342-3.3467v-5.61132zm14.3445 11.09872v-6.36026h.0029c0-3.34673-1.9756-4.8653-4.6353-4.8653-1.6218 0-2.9723.53961-3.8244 1.55985v-1.43305h-2.4739v11.09876h2.5977v-5.6113c0-2.22329 1.2473-3.34673 3.0961-3.34673 1.6631 0 2.6391.95536 2.6391 2.93093v6.0271zm14.278-15.421485v15.421485h-2.4945v-1.433c-.8729 1.0615-2.1614 1.5805-3.68 1.5805-3.2229 0-5.6113-2.244-5.6113-5.6969 0-3.45284 2.3914-5.67613 5.6113-5.67613 1.4331 0 2.701.47768 3.5738 1.49792v-5.693875h2.5978zm-2.5565 9.875085c0-2.1201-1.433-3.47058-3.3054-3.47058s-3.3055 1.35048-3.3055 3.47058 1.4331 3.4706 3.3055 3.4706 3.3054-1.3505 3.3054-3.4706zm15.2592 5.5494v-6.50478c0-3.1993-1.8488-4.71786-5.0511-4.71786-1.7869 0-3.5118.45705-4.6972 1.37113l1.0173 1.89304c.8315-.68703 2.1201-1.1028 3.3674-1.1028 1.8517 0 2.7658.89345 2.7658 2.41201v.16513h-2.869c-3.3674 0-4.6147 1.37113-4.6147 3.30543s1.6011 3.3261 4.137 3.3261c1.663 0 2.8661-.5425 3.4912-1.4979v1.3505zm-2.5978-4.7621v1.2886h.003c-.4364 1.144-1.4773 1.7249-2.8072 1.7249-1.3298 0-2.1201-.6045-2.1201-1.5392 0-.8079.4777-1.4743 2.244-1.4743zm12.5967 4.1575c-.625.4984-1.559.749-2.494.749-2.433 0-3.8245-1.2886-3.8245-3.7419v-5.34293h-1.8282v-2.07881h1.8282v-2.53585h2.5975v2.53585h2.973v2.07881h-2.973v5.28103c0 1.0822.54 1.6631 1.539 1.6631.54 0 1.059-.1445 1.454-.4571zm7.233-4.9478c0-3.32606 2.495-5.67614 5.903-5.67614 3.409 0 5.924 2.35008 5.924 5.67614 0 3.3261-2.474 5.6969-5.924 5.6969s-5.903-2.3708-5.903-5.6969zm9.209 0c0-2.12005-1.413-3.47054-3.306-3.47054s-3.285 1.35049-3.285 3.47054c0 2.1201 1.413 3.4706 3.285 3.4706 1.873 0 3.306-1.3505 3.306-3.4706zm16.046 5.5494v-6.36026h.003c0-3.34673-1.976-4.8653-4.635-4.8653-1.622 0-2.972.53961-3.825 1.55985v-1.43305h-2.474v11.09876h2.598v-5.6113c0-2.22329 1.247-3.34673 3.096-3.34673 1.663 0 2.639.95536 2.639 2.93093v6.0271z" fill="#ffffff"/><g fill="#08cdd7"><path d="m14.4775 4.88593c.4866 1.06447.7549 2.23509.7549 3.45878 0 .01917.0015.03834.0029.0575.0015.01917.003.03834.003.0575l4.0131-3.56493v-4.249028z"/><path d="m13.9619 8.34765c0-4.24608-3.7979-7.70191-8.46857-7.70191v3.17866c2.85136 0 5.17487 1.93727 5.28107 4.35518l-2.15844 1.91962c.57499 1.0025.95242 2.1142 1.07922 3.2936l1.92552-1.7102c1.3681 2.583 4.2755 4.367 7.634 4.367v-3.1787c-2.9162 0-5.2899-2.0287-5.2899-4.52325z"/><path d="m13.7585 18.8007v3.1787c-3.6711 0-6.80555-2.1378-7.97617-5.116l-5.78233 5.1366v-4.252l1.70138-1.5126 2.31175-2.0553 1.11755-.9907c-.57204-1.9697-2.65085-3.4352-5.13068-3.4352v-3.17866c4.67068 0 8.46856 3.45586 8.46856 7.70186 0 2.4946 2.37364 4.5233 5.28994 4.5233z"/></g></g></svg>