<svg xmlns="http://www.w3.org/2000/svg" xmlns:xlink="http://www.w3.org/1999/xlink" width="115px" height="22px" viewBox="0 0 115 22"><title>xx-network-logo--color</title><g id="Page-1" stroke="none" stroke-width="1" fill="none" fill-rule="evenodd"><g id="xx-network-logo--color" fill-rule="nonzero"><path d="M14.840091,4.361141 C15.324691,5.451431 15.627491,6.662861 15.627491,7.904571 C15.627491,7.934861 15.627491,7.995431 15.627491,8.025721 L19.746391,4.361141 L19.746391,0 L14.840091,4.361141 Z" id="Path" fill="#0DB9CB"></path><path d="M14.325091,7.934841 C14.325091,3.573701 10.418191,0.030274 5.633061,0.030274 L5.633061,3.301131 C8.570771,3.301131 10.963291,5.299991 11.054191,7.783421 L8.843341,9.751941 C9.418791,10.781741 9.812491,11.932541 9.963891,13.143941 L11.932491,11.387441 C13.325591,14.052541 16.323891,15.869741 19.776491,15.869741 L19.776491,12.598841 C16.747891,12.568541 14.325091,10.478841 14.325091,7.934841 Z" id="Path" fill="#0DB9CB"></path><path d="M14.113191,21.926841 L14.113191,18.656041 C11.114891,18.656041 8.692001,16.566241 8.692001,14.022241 C8.692001,9.661141 4.785141,6.117711 -2.66453526e-15,6.117711 L-2.66453526e-15,9.388541 C2.544001,9.388541 4.694281,10.902841 5.269711,12.932041 L4.118861,13.961741 L1.756571,16.081741 L-2.66453526e-15,17.626241 L-2.66453526e-15,21.987441 L5.936001,16.717741 C7.117141,19.716041 10.327391,21.926841 14.113191,21.926841 Z" id="Path" fill="#0DB9CB"></path><path d="M35.101191,9.297711 L35.101191,15.839441 L32.436091,15.839441 L32.436091,9.661141 C32.436091,7.632001 31.436691,6.662851 29.710391,6.662851 C27.802391,6.662851 26.530391,7.813711 26.530391,10.085141 L26.530391,15.839441 L23.865191,15.839441 L23.865191,4.421711 L26.409191,4.421711 L26.409191,5.905711 C27.287491,4.845711 28.680691,4.300571 30.346391,4.300571 C33.072091,4.300571 35.101191,5.845141 35.101191,9.297711 Z" id="Path" fill="#3D3D3D"></path><path d="M48.426791,10.993741 L39.492591,10.993741 C39.825691,12.659441 41.188591,13.719441 43.187391,13.719441 C44.459391,13.719441 45.458791,13.325741 46.276591,12.477741 L47.699991,14.113141 C46.670291,15.324541 45.065091,15.960541 43.096591,15.960541 C39.280591,15.960541 36.797091,13.507441 36.797091,10.115441 C36.797091,6.723431 39.280591,4.300571 42.702791,4.300571 C46.034291,4.300571 48.457091,6.632571 48.457091,10.206241 C48.487391,10.418241 48.457091,10.721141 48.426791,10.993741 Z M39.462291,9.206851 L45.943391,9.206851 C45.731391,7.571431 44.459391,6.420571 42.733091,6.420571 C40.976591,6.450851 39.734791,7.541141 39.462291,9.206851 Z" id="Shape" fill="#3D3D3D"></path><path d="M57.875991,15.203441 C57.239991,15.718241 56.270791,15.960541 55.301691,15.960541 C52.818191,15.960541 51.364491,14.628041 51.364491,12.114241 L51.364491,6.662861 L49.486791,6.662861 L49.486791,4.542861 L51.364491,4.542861 L51.364491,1.938291 L54.029691,1.938291 L54.029691,4.542861 L57.088491,4.542861 L57.088491,6.662861 L54.029691,6.662861 L54.029691,12.084041 C54.029691,13.204541 54.574791,13.780041 55.604491,13.780041 C56.149691,13.780041 56.694791,13.628541 57.088491,13.295441 L57.875991,15.203441 Z" id="Path" fill="#3D3D3D"></path><polygon id="Path" fill="#3D3D3D" points="78.500591 4.421721 74.290791 15.809141 71.716591 15.809141 68.778791 7.965151 65.780591 15.809141 63.206291 15.809141 59.026891 4.421721 61.540591 4.421721 64.538891 12.841141 67.688591 4.421721 69.929691 4.421721 73.018791 12.871441 76.107991 4.421721"></polygon><path d="M79.075891,10.115441 C79.075891,6.693141 81.650191,4.300571 85.133091,4.300571 C88.676491,4.300571 91.220491,6.723431 91.220491,10.115441 C91.220491,13.507441 88.676491,15.960541 85.133091,15.960541 C81.650191,15.990841 79.075891,13.537741 79.075891,10.115441 Z M88.555391,10.115441 C88.555391,7.934851 87.101691,6.541711 85.163391,6.541711 C83.255391,6.541711 81.801691,7.934851 81.801691,10.115441 C81.801691,12.296041 83.255391,13.689141 85.163391,13.689141 C87.101691,13.689141 88.555391,12.296041 88.555391,10.115441 Z" id="Shape" fill="#3D3D3D"></path><path d="M99.973191,4.300571 L99.973191,6.844571 C99.731191,6.814281 99.549191,6.784001 99.367191,6.784001 C97.338291,6.784001 96.066291,7.965141 96.066291,10.297141 L96.066291,15.839441 L93.401091,15.839441 L93.401091,4.421711 L95.945091,4.421711 L95.945091,6.087421 C96.671991,4.906281 98.065091,4.300571 99.973191,4.300571 Z" id="Path" fill="#3D3D3D"></path><polygon id="Path" fill="#3D3D3D" points="106.969191 10.933141 104.970191 12.810841 104.970191 15.809141 102.305191 15.809141 102.305191 0 104.970191 0 104.970191 9.570241 110.512191 4.452001 113.723191 4.452001 108.968191 9.237141 114.177191 15.869741 110.936191 15.869741"></polygon></g></g></svg>